<mxfile host="app.diagrams.net" modified="2023-11-01T11:37:51.711Z" agent="Mozilla/5.0 (Windows NT 10.0; Win64; x64) AppleWebKit/537.36 (KHTML, like Gecko) Chrome/118.0.0.0 Safari/537.36" etag="EmoogYa4nYWQufNT2J3y" version="22.0.8" type="github">
  <diagram name="Page-1" id="WHW3vwx68dzItflWKQoz">
    <mxGraphModel dx="1434" dy="746" grid="1" gridSize="10" guides="1" tooltips="1" connect="1" arrows="1" fold="1" page="1" pageScale="1" pageWidth="827" pageHeight="1169" math="0" shadow="0">
      <root>
        <mxCell id="0" />
        <mxCell id="1" parent="0" />
        <mxCell id="26yr2gSdb5ZErcrHI1Ah-1" value="" style="rounded=0;html=1;jettySize=auto;orthogonalLoop=1;fontSize=11;endArrow=block;endFill=0;endSize=8;strokeWidth=1;shadow=0;labelBackgroundColor=none;edgeStyle=orthogonalEdgeStyle;" parent="1" source="26yr2gSdb5ZErcrHI1Ah-2" edge="1">
          <mxGeometry relative="1" as="geometry">
            <mxPoint x="400" y="170" as="targetPoint" />
          </mxGeometry>
        </mxCell>
        <mxCell id="26yr2gSdb5ZErcrHI1Ah-2" value="initialize N" style="rounded=1;whiteSpace=wrap;html=1;fontSize=12;glass=0;strokeWidth=1;shadow=0;" parent="1" vertex="1">
          <mxGeometry x="340" y="80" width="120" height="40" as="geometry" />
        </mxCell>
        <mxCell id="26yr2gSdb5ZErcrHI1Ah-3" value="input N" style="rounded=1;whiteSpace=wrap;html=1;" parent="1" vertex="1">
          <mxGeometry x="340" y="170" width="120" height="40" as="geometry" />
        </mxCell>
        <mxCell id="26yr2gSdb5ZErcrHI1Ah-4" value="" style="rounded=0;html=1;jettySize=auto;orthogonalLoop=1;fontSize=11;endArrow=block;endFill=0;endSize=8;strokeWidth=1;shadow=0;labelBackgroundColor=none;edgeStyle=orthogonalEdgeStyle;entryX=0;entryY=0.5;entryDx=0;entryDy=0;" parent="1" source="26yr2gSdb5ZErcrHI1Ah-5" target="26yr2gSdb5ZErcrHI1Ah-8" edge="1">
          <mxGeometry relative="1" as="geometry">
            <mxPoint x="400" y="350" as="targetPoint" />
          </mxGeometry>
        </mxCell>
        <mxCell id="26yr2gSdb5ZErcrHI1Ah-5" value="to string N, called numstr" style="rounded=1;whiteSpace=wrap;html=1;fontSize=12;glass=0;strokeWidth=1;shadow=0;" parent="1" vertex="1">
          <mxGeometry x="260" y="260" width="120" height="40" as="geometry" />
        </mxCell>
        <mxCell id="26yr2gSdb5ZErcrHI1Ah-6" value="" style="rounded=0;html=1;jettySize=auto;orthogonalLoop=1;fontSize=11;endArrow=block;endFill=0;endSize=8;strokeWidth=1;shadow=0;labelBackgroundColor=none;edgeStyle=orthogonalEdgeStyle;entryX=0.5;entryY=0;entryDx=0;entryDy=0;" parent="1" target="26yr2gSdb5ZErcrHI1Ah-5" edge="1">
          <mxGeometry relative="1" as="geometry">
            <mxPoint x="400" y="210" as="sourcePoint" />
            <mxPoint x="310" y="240" as="targetPoint" />
            <Array as="points">
              <mxPoint x="400" y="211" />
              <mxPoint x="320" y="211" />
            </Array>
          </mxGeometry>
        </mxCell>
        <mxCell id="26yr2gSdb5ZErcrHI1Ah-8" value="size of the string" style="rounded=1;whiteSpace=wrap;html=1;fontSize=12;glass=0;strokeWidth=1;shadow=0;" parent="1" vertex="1">
          <mxGeometry x="460" y="260" width="120" height="40" as="geometry" />
        </mxCell>
        <mxCell id="26yr2gSdb5ZErcrHI1Ah-9" value="" style="rounded=0;html=1;jettySize=auto;orthogonalLoop=1;fontSize=11;endArrow=block;endFill=0;endSize=8;strokeWidth=1;shadow=0;labelBackgroundColor=none;edgeStyle=orthogonalEdgeStyle;" parent="1" source="26yr2gSdb5ZErcrHI1Ah-10" edge="1">
          <mxGeometry relative="1" as="geometry">
            <mxPoint x="380" y="370" as="targetPoint" />
          </mxGeometry>
        </mxCell>
        <mxCell id="26yr2gSdb5ZErcrHI1Ah-11" value="" style="rounded=0;html=1;jettySize=auto;orthogonalLoop=1;fontSize=11;endArrow=block;endFill=0;endSize=8;strokeWidth=1;shadow=0;labelBackgroundColor=none;edgeStyle=orthogonalEdgeStyle;" parent="1" edge="1">
          <mxGeometry relative="1" as="geometry">
            <mxPoint x="320" y="500" as="targetPoint" />
            <mxPoint x="300" y="390.0000000000001" as="sourcePoint" />
          </mxGeometry>
        </mxCell>
        <mxCell id="26yr2gSdb5ZErcrHI1Ah-12" value="initialize index&amp;nbsp;" style="rounded=1;whiteSpace=wrap;html=1;fontSize=12;glass=0;strokeWidth=1;shadow=0;" parent="1" vertex="1">
          <mxGeometry x="260" y="350" width="120" height="40" as="geometry" />
        </mxCell>
        <mxCell id="26yr2gSdb5ZErcrHI1Ah-13" value="while index &amp;lt;&lt;br&gt;numstr length" style="rhombus;whiteSpace=wrap;html=1;" parent="1" vertex="1">
          <mxGeometry x="250" y="500" width="140" height="80" as="geometry" />
        </mxCell>
        <mxCell id="26yr2gSdb5ZErcrHI1Ah-14" value="" style="rounded=0;html=1;jettySize=auto;orthogonalLoop=1;fontSize=11;endArrow=block;endFill=0;endSize=8;strokeWidth=1;shadow=0;labelBackgroundColor=none;edgeStyle=orthogonalEdgeStyle;" parent="1" edge="1">
          <mxGeometry relative="1" as="geometry">
            <mxPoint x="319.5" y="630" as="targetPoint" />
            <mxPoint x="319.5" y="580" as="sourcePoint" />
          </mxGeometry>
        </mxCell>
        <mxCell id="26yr2gSdb5ZErcrHI1Ah-15" value="" style="edgeStyle=orthogonalEdgeStyle;rounded=0;orthogonalLoop=1;jettySize=auto;html=1;" parent="1" source="26yr2gSdb5ZErcrHI1Ah-16" target="26yr2gSdb5ZErcrHI1Ah-18" edge="1">
          <mxGeometry relative="1" as="geometry" />
        </mxCell>
        <mxCell id="26yr2gSdb5ZErcrHI1Ah-16" value="add to num2 using numstr and index" style="rounded=1;whiteSpace=wrap;html=1;fontSize=12;glass=0;strokeWidth=1;shadow=0;" parent="1" vertex="1">
          <mxGeometry x="260" y="630" width="120" height="40" as="geometry" />
        </mxCell>
        <mxCell id="26yr2gSdb5ZErcrHI1Ah-17" value="" style="rounded=0;html=1;jettySize=auto;orthogonalLoop=1;fontSize=11;endArrow=block;endFill=0;endSize=8;strokeWidth=1;shadow=0;labelBackgroundColor=none;edgeStyle=orthogonalEdgeStyle;" parent="1" edge="1">
          <mxGeometry relative="1" as="geometry">
            <mxPoint x="319.5" y="720" as="targetPoint" />
            <mxPoint x="319.5" y="670" as="sourcePoint" />
          </mxGeometry>
        </mxCell>
        <mxCell id="26yr2gSdb5ZErcrHI1Ah-18" value="increment index" style="rounded=1;whiteSpace=wrap;html=1;fontSize=12;glass=0;strokeWidth=1;shadow=0;" parent="1" vertex="1">
          <mxGeometry x="260" y="720" width="120" height="40" as="geometry" />
        </mxCell>
        <mxCell id="26yr2gSdb5ZErcrHI1Ah-19" value="" style="endArrow=classic;html=1;rounded=0;exitX=1;exitY=0.5;exitDx=0;exitDy=0;entryX=1;entryY=0.5;entryDx=0;entryDy=0;" parent="1" source="26yr2gSdb5ZErcrHI1Ah-18" target="26yr2gSdb5ZErcrHI1Ah-13" edge="1">
          <mxGeometry width="50" height="50" relative="1" as="geometry">
            <mxPoint x="570" y="860" as="sourcePoint" />
            <mxPoint x="480" y="660" as="targetPoint" />
            <Array as="points">
              <mxPoint x="480" y="740" />
              <mxPoint x="480" y="540" />
            </Array>
          </mxGeometry>
        </mxCell>
        <mxCell id="26yr2gSdb5ZErcrHI1Ah-20" value="" style="rounded=0;html=1;jettySize=auto;orthogonalLoop=1;fontSize=11;endArrow=block;endFill=0;endSize=8;strokeWidth=1;shadow=0;labelBackgroundColor=none;edgeStyle=orthogonalEdgeStyle;" parent="1" edge="1">
          <mxGeometry relative="1" as="geometry">
            <mxPoint x="319.5" y="810" as="targetPoint" />
            <mxPoint x="319.5" y="760" as="sourcePoint" />
          </mxGeometry>
        </mxCell>
        <mxCell id="26yr2gSdb5ZErcrHI1Ah-21" value="" style="edgeStyle=orthogonalEdgeStyle;rounded=0;orthogonalLoop=1;jettySize=auto;html=1;" parent="1" source="26yr2gSdb5ZErcrHI1Ah-22" target="26yr2gSdb5ZErcrHI1Ah-24" edge="1">
          <mxGeometry relative="1" as="geometry" />
        </mxCell>
        <mxCell id="26yr2gSdb5ZErcrHI1Ah-22" value="add to num2 using numstr with index 0" style="rounded=1;whiteSpace=wrap;html=1;fontSize=12;glass=0;strokeWidth=1;shadow=0;" parent="1" vertex="1">
          <mxGeometry x="260" y="810" width="120" height="40" as="geometry" />
        </mxCell>
        <mxCell id="26yr2gSdb5ZErcrHI1Ah-24" value="output num2" style="rounded=1;whiteSpace=wrap;html=1;fontSize=12;glass=0;strokeWidth=1;shadow=0;" parent="1" vertex="1">
          <mxGeometry x="450" y="810" width="120" height="40" as="geometry" />
        </mxCell>
        <mxCell id="26yr2gSdb5ZErcrHI1Ah-25" value="" style="rounded=0;html=1;jettySize=auto;orthogonalLoop=1;fontSize=11;endArrow=block;endFill=0;endSize=8;strokeWidth=1;shadow=0;labelBackgroundColor=none;edgeStyle=orthogonalEdgeStyle;exitX=0.5;exitY=1;exitDx=0;exitDy=0;" parent="1" source="26yr2gSdb5ZErcrHI1Ah-8" target="26yr2gSdb5ZErcrHI1Ah-10" edge="1">
          <mxGeometry relative="1" as="geometry">
            <mxPoint x="520" y="460" as="targetPoint" />
            <mxPoint x="520" y="300" as="sourcePoint" />
          </mxGeometry>
        </mxCell>
        <mxCell id="26yr2gSdb5ZErcrHI1Ah-10" value="initialize string num2" style="rounded=1;whiteSpace=wrap;html=1;fontSize=12;glass=0;strokeWidth=1;shadow=0;" parent="1" vertex="1">
          <mxGeometry x="460" y="350" width="120" height="40" as="geometry" />
        </mxCell>
      </root>
    </mxGraphModel>
  </diagram>
</mxfile>
